<svg width="17" height="17" viewBox="0 0 17 17" fill="none" xmlns="http://www.w3.org/2000/svg">
<path d="M8.49935 12.75H2.83268C2.45696 12.75 2.09662 12.6007 1.83095 12.3351C1.56527 12.0694 1.41602 11.7091 1.41602 11.3333V5.66667C1.41602 5.29094 1.56527 4.93061 1.83095 4.66493C2.09662 4.39926 2.45696 4.25 2.83268 4.25H14.166C14.5417 4.25 14.9021 4.39926 15.1678 4.66493C15.4334 4.93061 15.5827 5.29094 15.5827 5.66667V9.20833" stroke="currentColor" stroke-linecap="round" stroke-linejoin="round"/>
<path d="M12.75 8.5H12.7575" stroke="currentColor" stroke-linecap="round" stroke-linejoin="round"/>
<path d="M13.459 15.584V11.334" stroke="currentColor" stroke-linecap="round" stroke-linejoin="round"/>
<path d="M15.584 13.459L13.459 11.334L11.334 13.459" stroke="currentColor" stroke-linecap="round" stroke-linejoin="round"/>
<path d="M4.25 8.5H4.2575" stroke="currentColor" stroke-linecap="round" stroke-linejoin="round"/>
<path d="M8.50065 9.91732C9.28305 9.91732 9.91732 9.28305 9.91732 8.50065C9.91732 7.71825 9.28305 7.08398 8.50065 7.08398C7.71825 7.08398 7.08398 7.71825 7.08398 8.50065C7.08398 9.28305 7.71825 9.91732 8.50065 9.91732Z" stroke="currentColor" stroke-linecap="round" stroke-linejoin="round"/>
</svg>
