<svg width="12" height="16" viewBox="0 0 12 16" fill="none" xmlns="http://www.w3.org/2000/svg">
<path d="M9.92857 0.5C10.3453 0.5 10.745 0.665561 11.0397 0.960261C11.3344 1.25496 11.5 1.65466 11.5 2.07143V13.8571C11.5 13.9947 11.4638 14.1299 11.3951 14.2491C11.3264 14.3683 11.2276 14.4674 11.1086 14.5365C10.9896 14.6055 10.8545 14.6421 10.7169 14.6426C10.5793 14.6431 10.444 14.6074 10.3246 14.5391L6.77943 12.5136C6.54204 12.378 6.27339 12.3066 6 12.3066C5.72661 12.3066 5.45796 12.378 5.22057 12.5136L1.67543 14.5391C1.55595 14.6074 1.42065 14.6431 1.28306 14.6426C1.14547 14.6421 1.01041 14.6055 0.891398 14.5365C0.772387 14.4674 0.673596 14.3683 0.604908 14.2491C0.53622 14.1299 0.500044 13.9947 0.5 13.8571V2.07143C0.5 1.65466 0.665561 1.25496 0.960261 0.960261C1.25496 0.665561 1.65466 0.5 2.07143 0.5H9.92857Z" stroke="currentColor" stroke-linecap="round" stroke-linejoin="round"/>
<path d="M3.64258 6.00112L5.21401 7.57254L8.35686 4.42969" stroke="currentColor" stroke-linecap="round" stroke-linejoin="round"/>
</svg>
