<svg width="12" height="12" viewBox="0 0 12 12" fill="none" xmlns="http://www.w3.org/2000/svg">
<path fill-rule="evenodd" clip-rule="evenodd" d="M4.51049 0.193052C2.71947 0.674064 1.25056 1.87375 0.495858 3.47174C0.106205 4.29643 0.0570056 4.54209 0.0129709 5.88141C-0.0297047 7.18101 0.0179995 7.60156 0.384412 9.15264C0.61573 10.1316 0.804916 11.1244 0.804916 11.3591C0.804916 11.6888 0.881705 11.8146 1.14347 11.914C1.3298 11.9846 1.55908 12.0187 1.65313 11.9896C1.74731 11.9608 1.98774 11.9015 2.18752 11.858C2.38731 11.8145 2.7279 11.6302 2.9444 11.4486L3.338 11.1182L4.14408 11.5275C4.90979 11.9163 5.01852 11.9343 6.31714 11.8892C7.54712 11.8465 7.77857 11.7952 8.6276 11.3783C11.4504 9.99225 12.6921 6.84005 11.6149 3.7944C11.1923 2.60015 9.94932 1.23018 8.73388 0.619428C7.47889 -0.0112559 5.8738 -0.173265 4.51049 0.193052ZM6.86213 3.03045C8.22001 3.4346 9.09825 4.59672 9.09241 5.9816C9.08344 8.13436 6.85751 9.66768 4.91618 8.85859C4.45749 8.66743 4.37852 8.66946 3.97963 8.8838C3.38312 9.20416 3.18673 9.0107 2.9758 7.89534C2.63263 6.08125 3.04742 4.47851 4.09067 3.58766C4.92841 2.87238 5.76548 2.70413 6.86213 3.03045Z" fill="currentColor"/>
</svg>
