<svg width="14" height="14" viewBox="0 0 14 14" fill="none" xmlns="http://www.w3.org/2000/svg">
<path d="M13.1833 14C11.563 14 9.96204 13.6469 8.38056 12.9407C6.79907 12.2344 5.36019 11.2329 4.06389 9.93611C2.76759 8.6393 1.76633 7.20041 1.06011 5.61944C0.353889 4.03848 0.000518519 2.43756 0 0.816667C0 0.583333 0.0777777 0.388889 0.233333 0.233333C0.388889 0.0777777 0.583333 0 0.816667 0H3.96667C4.14815 0 4.31019 0.0617036 4.45278 0.185111C4.59537 0.308518 4.67963 0.454222 4.70556 0.622222L5.21111 3.34444C5.23704 3.55185 5.23056 3.72685 5.19167 3.86944C5.15278 4.01204 5.08148 4.13519 4.97778 4.23889L3.09167 6.14444C3.35093 6.62407 3.65867 7.08737 4.01489 7.53433C4.37111 7.9813 4.76337 8.41245 5.19167 8.82778C5.59352 9.22963 6.01481 9.60244 6.45556 9.94622C6.8963 10.29 7.36296 10.6042 7.85556 10.8889L9.68333 9.06111C9.8 8.94444 9.95245 8.85707 10.1407 8.799C10.3289 8.74093 10.5135 8.72459 10.6944 8.75L13.3778 9.29444C13.5593 9.3463 13.7083 9.44041 13.825 9.57678C13.9417 9.71315 14 9.86533 14 10.0333V13.1833C14 13.4167 13.9222 13.6111 13.7667 13.7667C13.6111 13.9222 13.4167 14 13.1833 14Z" fill="currentColor"/>
</svg>
