<svg width="20" height="21" viewBox="0 0 20 21" fill="none" xmlns="http://www.w3.org/2000/svg">
<path d="M9.80556 21C9.43222 21 9.08111 20.9297 8.75222 20.7891C8.42333 20.6485 8.12259 20.4391 7.85 20.1609L2.37778 14.5885L2.91111 14.059C3.07926 13.9017 3.27 13.8004 3.48333 13.7551C3.69593 13.7089 3.91148 13.7135 4.13 13.7687L7.22333 14.5477V5.12441C7.22333 4.96339 7.27667 4.82883 7.38333 4.72072C7.49 4.61262 7.62222 4.55818 7.78 4.55743C7.93778 4.55667 8.06963 4.6111 8.17556 4.72072C8.28148 4.83034 8.33407 4.9649 8.33333 5.12441V16.0695L4.29222 14.9548L8.64333 19.3739C8.79296 19.5258 8.96963 19.646 9.17333 19.7345C9.37704 19.8229 9.58778 19.8668 9.80556 19.866H13.8889C14.6711 19.866 15.3296 19.5931 15.8644 19.0473C16.3993 18.5015 16.6667 17.8294 16.6667 17.0311V12.4952C16.6667 12.3342 16.72 12.1996 16.8267 12.0915C16.9333 11.9834 17.0656 11.929 17.2233 11.9282C17.3811 11.9275 17.513 11.9819 17.6189 12.0915C17.7248 12.2011 17.7778 12.3357 17.7778 12.4952V17.0311C17.7778 18.1333 17.3996 19.0704 16.6433 19.8422C15.887 20.6141 14.9704 21 13.8933 21H9.80556ZM10.3633 13.6292V9.09331C10.3633 8.93229 10.4167 8.79734 10.5233 8.68848C10.63 8.58038 10.7622 8.52633 10.92 8.52633C11.0778 8.52633 11.2096 8.58076 11.3156 8.68962C11.4215 8.79848 11.4744 8.93304 11.4744 9.09331V13.6292H10.3633ZM13.5256 13.6292V10.2273C13.5256 10.0663 13.5789 9.93131 13.6856 9.82245C13.7922 9.71359 13.9244 9.65954 14.0822 9.6603C14.24 9.66105 14.3719 9.71548 14.4778 9.82359C14.5837 9.93169 14.6367 10.0663 14.6367 10.2273V13.6292H13.5256ZM0 5.56099C0.783704 3.87742 2.08074 2.52951 3.89111 1.51725C5.70148 0.504996 7.7163 -0.000755134 9.93556 8.46246e-07C11.52 8.46246e-07 13.0607 0.281982 14.5578 0.845943C16.0548 1.4099 17.5411 2.27134 19.0167 3.43026V0.588532H20V5.56099H15.1289V4.55743H18.7778C17.3422 3.3592 15.8956 2.46714 14.4378 1.88126C12.98 1.29537 11.4793 1.00243 9.93556 1.00243C8.02148 1.00243 6.27259 1.40877 4.68889 2.22145C3.10519 3.03413 1.89037 4.14693 1.04444 5.55986L0 5.56099Z" fill="currentColor"/>
</svg>
