<svg width="13" height="11" viewBox="0 0 13 11" fill="none" xmlns="http://www.w3.org/2000/svg">
<path fill-rule="evenodd" clip-rule="evenodd" d="M11.6534 0.0752544C11.8133 0.00862065 11.9882 -0.0143609 12.1601 0.00870154C12.3319 0.031764 12.4944 0.100027 12.6305 0.206387C12.7667 0.312746 12.8716 0.453313 12.9343 0.613456C12.997 0.7736 13.0153 0.947466 12.9871 1.11696L11.5202 9.93042C11.3779 10.7806 10.4361 11.2681 9.64897 10.8446C8.99052 10.4904 8.01255 9.94452 7.1329 9.37498C6.69307 9.08989 5.34578 8.17696 5.51136 7.52733C5.65365 6.97189 7.91747 4.88464 9.21108 3.64369C9.71883 3.15616 9.48727 2.87491 8.88768 3.32337C7.39874 4.43682 5.00814 6.13007 4.21775 6.60672C3.52049 7.02698 3.15698 7.09874 2.72233 7.02698C1.92935 6.89629 1.19393 6.69384 0.593695 6.44719C-0.217399 6.11405 -0.177944 5.00957 0.593048 4.68796L11.6534 0.0752544Z" fill="currentColor"/>
</svg>
