<svg width="17" height="17" viewBox="0 0 17 17" fill="none" xmlns="http://www.w3.org/2000/svg">
<path d="M13.4583 4.95833V2.83333C13.4583 2.64547 13.3837 2.4653 13.2509 2.33247C13.118 2.19963 12.9379 2.125 12.75 2.125H3.54167C3.16594 2.125 2.80561 2.27426 2.53993 2.53993C2.27426 2.80561 2.125 3.16594 2.125 3.54167C2.125 3.91739 2.27426 4.27772 2.53993 4.5434C2.80561 4.80908 3.16594 4.95833 3.54167 4.95833H14.1667C14.3545 4.95833 14.5347 5.03296 14.6675 5.1658C14.8004 5.29864 14.875 5.4788 14.875 5.66667V8.5M14.875 8.5H12.75C12.3743 8.5 12.0139 8.64926 11.7483 8.91493C11.4826 9.18061 11.3333 9.54094 11.3333 9.91667C11.3333 10.2924 11.4826 10.6527 11.7483 10.9184C12.0139 11.1841 12.3743 11.3333 12.75 11.3333H14.875C15.0629 11.3333 15.243 11.2587 15.3759 11.1259C15.5087 10.993 15.5833 10.8129 15.5833 10.625V9.20833C15.5833 9.02047 15.5087 8.8403 15.3759 8.70747C15.243 8.57463 15.0629 8.5 14.875 8.5Z" stroke="currentColor" stroke-linecap="round" stroke-linejoin="round"/>
<path d="M2.125 3.54102V13.4577C2.125 13.8334 2.27426 14.1937 2.53993 14.4594C2.80561 14.7251 3.16594 14.8743 3.54167 14.8743H14.1667C14.3545 14.8743 14.5347 14.7997 14.6675 14.6669C14.8004 14.534 14.875 14.3539 14.875 14.166V11.3327" stroke="currentColor" stroke-linecap="round" stroke-linejoin="round"/>
</svg>
