<svg width="24" height="24" viewBox="0 0 24 24" fill="none" xmlns="http://www.w3.org/2000/svg">
<path d="M10 22C9.46957 22 8.96086 21.7893 8.58579 21.4142C8.21071 21.0391 8 20.5304 8 20" stroke="white" stroke-linecap="round" stroke-linejoin="round"/>
<path d="M16 22H14" stroke="white" stroke-linecap="round" stroke-linejoin="round"/>
<path d="M16 4C16 3.46957 15.7893 2.96086 15.4142 2.58579C15.0391 2.21071 14.5304 2 14 2H4C3.46957 2 2.96086 2.21071 2.58579 2.58579C2.21071 2.96086 2 3.46957 2 4V14C2 14.5304 2.21071 15.0391 2.58579 15.4142C2.96086 15.7893 3.46957 16 4 16H7C7.26522 16 7.51957 15.8946 7.70711 15.7071C7.89464 15.5196 8 15.2652 8 15V10C8 9.46957 8.21071 8.96086 8.58579 8.58579C8.96086 8.21071 9.46957 8 10 8H15C15.2652 8 15.5196 7.89464 15.7071 7.70711C15.8946 7.51957 16 7.26522 16 7V4Z" stroke="white" stroke-linecap="round" stroke-linejoin="round"/>
<path d="M20 8C20.5304 8 21.0391 8.21071 21.4142 8.58579C21.7893 8.96086 22 9.46957 22 10" stroke="white" stroke-linecap="round" stroke-linejoin="round"/>
<path d="M22 14V16" stroke="white" stroke-linecap="round" stroke-linejoin="round"/>
<path d="M22 20C22 20.5304 21.7893 21.0391 21.4142 21.4142C21.0391 21.7893 20.5304 22 20 22" stroke="white" stroke-linecap="round" stroke-linejoin="round"/>
</svg>
