<svg width="24" height="24" viewBox="0 0 24 24" fill="none" xmlns="http://www.w3.org/2000/svg">
<path d="M12.4002 2.70005C12.8625 2.27131 13.4697 2.03308 14.1002 2.03308C14.7307 2.03308 15.3379 2.27131 15.8002 2.70005L21.3002 8.20005C21.7289 8.66234 21.9671 9.26955 21.9671 9.90005C21.9671 10.5305 21.7289 11.1378 21.3002 11.6001L17.6002 15.3001C17.1379 15.7288 16.5307 15.967 15.9002 15.967C15.2697 15.967 14.6625 15.7288 14.2002 15.3001L8.70017 9.80005C8.27143 9.33776 8.0332 8.73055 8.0332 8.10005C8.0332 7.46955 8.27143 6.86234 8.70017 6.40005L12.4002 2.70005Z" stroke="#C5C5C5" stroke-linecap="round" stroke-linejoin="round"/>
<path d="M14 7L17 10" stroke="#C5C5C5" stroke-linecap="round" stroke-linejoin="round"/>
<path d="M9.4 10.5996L2.586 17.4136C2.2109 17.7886 2.00011 18.2972 2 18.8276V20.9996C2 21.2648 2.10536 21.5192 2.29289 21.7067C2.48043 21.8943 2.73478 21.9996 3 21.9996H6C6.26522 21.9996 6.51957 21.8943 6.70711 21.7067C6.89464 21.5192 7 21.2648 7 20.9996V19.9996C7 19.7344 7.10536 19.48 7.29289 19.2925C7.48043 19.105 7.73478 18.9996 8 18.9996H9C9.26522 18.9996 9.51957 18.8943 9.70711 18.7067C9.89464 18.5192 10 18.2648 10 17.9996V16.9996C10 16.7344 10.1054 16.48 10.2929 16.2925C10.4804 16.105 10.7348 15.9996 11 15.9996H11.172C11.7024 15.9995 12.211 15.7887 12.586 15.4136L13.4 14.5996" stroke="#C5C5C5" stroke-linecap="round" stroke-linejoin="round"/>
</svg>
