<svg width="24" height="24" viewBox="0 0 24 24" fill="none" xmlns="http://www.w3.org/2000/svg">
<path d="M10 4L8 6" stroke="#C5C5C5" stroke-linecap="round" stroke-linejoin="round"/>
<path d="M17 19V21" stroke="#C5C5C5" stroke-linecap="round" stroke-linejoin="round"/>
<path d="M2 12H22" stroke="#C5C5C5" stroke-linecap="round" stroke-linejoin="round"/>
<path d="M7 19V21" stroke="#C5C5C5" stroke-linecap="round" stroke-linejoin="round"/>
<path d="M9 4.99998L7.621 3.62098C7.33181 3.33045 6.96463 3.12995 6.56388 3.04373C6.16313 2.9575 5.74598 2.98926 5.36289 3.13515C4.97981 3.28104 4.64721 3.53482 4.40533 3.86577C4.16346 4.19673 4.02267 4.59069 4 4.99998V17C4 17.5304 4.21071 18.0391 4.58579 18.4142C4.96086 18.7893 5.46957 19 6 19H18C18.5304 19 19.0391 18.7893 19.4142 18.4142C19.7893 18.0391 20 17.5304 20 17V12" stroke="#C5C5C5" stroke-linecap="round" stroke-linejoin="round"/>
</svg>
