<svg width="0" height="0" class="hidden">
  <symbol fill="none" xmlns="http://www.w3.org/2000/svg" viewBox="0 0 6 4" id="ic_arr_ver">
    <path d="M0.312378 0.390434L2.81238 2.39043L5.31238 0.390434" stroke="currentColor"></path>
  </symbol>
  <symbol fill="none" xmlns="http://www.w3.org/2000/svg" viewBox="0 0 11 11" id="ic_arrow_diagonal">
    <path d="M0.353547 10.1105L9.96405 0.500001M9.96405 0.500001L0.353333 0.5M9.96405 0.500001L9.96405 10.1107" stroke="currentColor"></path>
  </symbol>
  <symbol fill="none" xmlns="http://www.w3.org/2000/svg" viewBox="0 0 20 20" id="ic_arrow_diagonal_big">
    <path d="M0.35355 18.8847L18.7383 0.499989M18.7383 0.499989H0.353526M18.7383 0.499989V18.8848" stroke="currentColor"></path>
  </symbol>
  <symbol fill="none" xmlns="http://www.w3.org/2000/svg" viewBox="0 0 15 15" id="ic_arrow_hor">
    <path d="M14.7068 7.35352L0.707105 7.35352M0.707105 7.35352L7.70711 0.353516M0.707105 7.35352L7.70711 14.3535" stroke="currentColor"></path>
  </symbol>
  <symbol fill="none" xmlns="http://www.w3.org/2000/svg" viewBox="0 0 25 15" id="ic_arrow_hor_big">
    <path d="M24.7069 7.35361L0.707185 7.35361M0.707185 7.35361L7.70719 0.353604M0.707185 7.35361L7.70719 14.3536" stroke="currentColor"></path>
  </symbol>
  <symbol fill="none" xmlns="http://www.w3.org/2000/svg" viewBox="0 0 8 6" id="ic_check">
    <path d="M0.599976 1.93343L2.99998 4.6001L6.59998 0.600098" stroke="currentColor" stroke-width="1.2" stroke-linecap="round" stroke-linejoin="round"></path>
  </symbol>
  <symbol fill="none" xmlns="http://www.w3.org/2000/svg" viewBox="0 0 19 15" id="ic_menu">
    <path d="M0 0.5H19" stroke="currentColor"></path>
    <path d="M0 7.5H16" stroke="currentColor"></path>
    <path d="M0 14.5H13" stroke="currentColor"></path>
  </symbol>
  <symbol fill="none" xmlns="http://www.w3.org/2000/svg" viewBox="0 0 14 14" id="ic_phone">
    <path d="M13.1833 14C11.563 14 9.96204 13.6469 8.38056 12.9407C6.79907 12.2344 5.36019 11.2329 4.06389 9.93611C2.76759 8.6393 1.76633 7.20041 1.06011 5.61944C0.353889 4.03848 0.000518519 2.43756 0 0.816667C0 0.583333 0.0777777 0.388889 0.233333 0.233333C0.388889 0.0777777 0.583333 0 0.816667 0H3.96667C4.14815 0 4.31019 0.0617036 4.45278 0.185111C4.59537 0.308518 4.67963 0.454222 4.70556 0.622222L5.21111 3.34444C5.23704 3.55185 5.23056 3.72685 5.19167 3.86944C5.15278 4.01204 5.08148 4.13519 4.97778 4.23889L3.09167 6.14444C3.35093 6.62407 3.65867 7.08737 4.01489 7.53433C4.37111 7.9813 4.76337 8.41245 5.19167 8.82778C5.59352 9.22963 6.01481 9.60244 6.45556 9.94622C6.8963 10.29 7.36296 10.6042 7.85556 10.8889L9.68333 9.06111C9.8 8.94444 9.95245 8.85707 10.1407 8.799C10.3289 8.74093 10.5135 8.72459 10.6944 8.75L13.3778 9.29444C13.5593 9.3463 13.7083 9.44041 13.825 9.57678C13.9417 9.71315 14 9.86533 14 10.0333V13.1833C14 13.4167 13.9222 13.6111 13.7667 13.7667C13.6111 13.9222 13.4167 14 13.1833 14Z" fill="currentColor"></path>
  </symbol>
  <symbol fill="none" xmlns="http://www.w3.org/2000/svg" viewBox="0 0 17 17" id="ic_calendar">
    <path d="M5.66602 1.41602V4.24935" stroke="currentColor" stroke-linecap="round" stroke-linejoin="round"></path>
    <path d="M11.334 1.41602V4.24935" stroke="currentColor" stroke-linecap="round" stroke-linejoin="round"></path>
    <path d="M13.4583 2.83398H3.54167C2.75926 2.83398 2.125 3.46825 2.125 4.25065V14.1673C2.125 14.9497 2.75926 15.584 3.54167 15.584H13.4583C14.2407 15.584 14.875 14.9497 14.875 14.1673V4.25065C14.875 3.46825 14.2407 2.83398 13.4583 2.83398Z" stroke="currentColor" stroke-linecap="round" stroke-linejoin="round"></path>
    <path d="M2.125 7.08398H14.875" stroke="currentColor" stroke-linecap="round" stroke-linejoin="round"></path>
  </symbol>
  <symbol fill="none" xmlns="http://www.w3.org/2000/svg" viewBox="0 0 17 17" id="ic_investment">
    <path d="M8.49935 12.75H2.83268C2.45696 12.75 2.09662 12.6007 1.83095 12.3351C1.56527 12.0694 1.41602 11.7091 1.41602 11.3333V5.66667C1.41602 5.29094 1.56527 4.93061 1.83095 4.66493C2.09662 4.39926 2.45696 4.25 2.83268 4.25H14.166C14.5417 4.25 14.9021 4.39926 15.1678 4.66493C15.4334 4.93061 15.5827 5.29094 15.5827 5.66667V9.20833" stroke="currentColor" stroke-linecap="round" stroke-linejoin="round"></path>
    <path d="M12.75 8.5H12.7575" stroke="currentColor" stroke-linecap="round" stroke-linejoin="round"></path>
    <path d="M13.459 15.584V11.334" stroke="currentColor" stroke-linecap="round" stroke-linejoin="round"></path>
    <path d="M15.584 13.459L13.459 11.334L11.334 13.459" stroke="currentColor" stroke-linecap="round" stroke-linejoin="round"></path>
    <path d="M4.25 8.5H4.2575" stroke="currentColor" stroke-linecap="round" stroke-linejoin="round"></path>
    <path d="M8.50065 9.91732C9.28305 9.91732 9.91732 9.28305 9.91732 8.50065C9.91732 7.71825 9.28305 7.08398 8.50065 7.08398C7.71825 7.08398 7.08398 7.71825 7.08398 8.50065C7.08398 9.28305 7.71825 9.91732 8.50065 9.91732Z" stroke="currentColor" stroke-linecap="round" stroke-linejoin="round"></path>
  </symbol>
  <symbol fill="none" xmlns="http://www.w3.org/2000/svg" viewBox="0 0 12 16" id="ic_list_item">
    <path d="M9.92857 0.5C10.3453 0.5 10.745 0.665561 11.0397 0.960261C11.3344 1.25496 11.5 1.65466 11.5 2.07143V13.8571C11.5 13.9947 11.4638 14.1299 11.3951 14.2491C11.3264 14.3683 11.2276 14.4674 11.1086 14.5365C10.9896 14.6055 10.8545 14.6421 10.7169 14.6426C10.5793 14.6431 10.444 14.6074 10.3246 14.5391L6.77943 12.5136C6.54204 12.378 6.27339 12.3066 6 12.3066C5.72661 12.3066 5.45796 12.378 5.22057 12.5136L1.67543 14.5391C1.55595 14.6074 1.42065 14.6431 1.28306 14.6426C1.14547 14.6421 1.01041 14.6055 0.891398 14.5365C0.772387 14.4674 0.673596 14.3683 0.604908 14.2491C0.53622 14.1299 0.500044 13.9947 0.5 13.8571V2.07143C0.5 1.65466 0.665561 1.25496 0.960261 0.960261C1.25496 0.665561 1.65466 0.5 2.07143 0.5H9.92857Z" stroke="currentColor" stroke-linecap="round" stroke-linejoin="round"></path>
    <path d="M3.64258 6.00112L5.21401 7.57254L8.35686 4.42969" stroke="currentColor" stroke-linecap="round" stroke-linejoin="round"></path>
  </symbol>
  <symbol fill="none" xmlns="http://www.w3.org/2000/svg" viewBox="0 0 17 17" id="ic_percents">
    <path d="M13.4577 3.54102L3.54102 13.4577" stroke="currentColor" stroke-linecap="round" stroke-linejoin="round"></path>
    <path d="M4.60482 6.37565C5.58282 6.37565 6.37565 5.58282 6.37565 4.60482C6.37565 3.62681 5.58282 2.83398 4.60482 2.83398C3.62681 2.83398 2.83398 3.62681 2.83398 4.60482C2.83398 5.58282 3.62681 6.37565 4.60482 6.37565Z" stroke="currentColor" stroke-linecap="round" stroke-linejoin="round"></path>
    <path d="M12.3958 14.1667C13.3738 14.1667 14.1667 13.3738 14.1667 12.3958C14.1667 11.4178 13.3738 10.625 12.3958 10.625C11.4178 10.625 10.625 11.4178 10.625 12.3958C10.625 13.3738 11.4178 14.1667 12.3958 14.1667Z" stroke="currentColor" stroke-linecap="round" stroke-linejoin="round"></path>
  </symbol>
  <symbol fill="none" xmlns="http://www.w3.org/2000/svg" viewBox="0 0 12 12" id="ic_max">
    <path fill-rule="evenodd" clip-rule="evenodd" d="M4.51049 0.193052C2.71947 0.674064 1.25056 1.87375 0.495858 3.47174C0.106205 4.29643 0.0570056 4.54209 0.0129709 5.88141C-0.0297047 7.18101 0.0179995 7.60156 0.384412 9.15264C0.61573 10.1316 0.804916 11.1244 0.804916 11.3591C0.804916 11.6888 0.881705 11.8146 1.14347 11.914C1.3298 11.9846 1.55908 12.0187 1.65313 11.9896C1.74731 11.9608 1.98774 11.9015 2.18752 11.858C2.38731 11.8145 2.7279 11.6302 2.9444 11.4486L3.338 11.1182L4.14408 11.5275C4.90979 11.9163 5.01852 11.9343 6.31714 11.8892C7.54712 11.8465 7.77857 11.7952 8.6276 11.3783C11.4504 9.99225 12.6921 6.84005 11.6149 3.7944C11.1923 2.60015 9.94932 1.23018 8.73388 0.619428C7.47889 -0.0112559 5.8738 -0.173265 4.51049 0.193052ZM6.86213 3.03045C8.22001 3.4346 9.09825 4.59672 9.09241 5.9816C9.08344 8.13436 6.85751 9.66768 4.91618 8.85859C4.45749 8.66743 4.37852 8.66946 3.97963 8.8838C3.38312 9.20416 3.18673 9.0107 2.9758 7.89534C2.63263 6.08125 3.04742 4.47851 4.09067 3.58766C4.92841 2.87238 5.76548 2.70413 6.86213 3.03045Z" fill="currentColor"></path>
  </symbol>
  <symbol fill="none" xmlns="http://www.w3.org/2000/svg" viewBox="0 0 13 11" id="ic_tg">
    <path fill-rule="evenodd" clip-rule="evenodd" d="M11.6534 0.0752544C11.8133 0.00862065 11.9882 -0.0143609 12.1601 0.00870154C12.3319 0.031764 12.4944 0.100027 12.6305 0.206387C12.7667 0.312746 12.8716 0.453313 12.9343 0.613456C12.997 0.7736 13.0153 0.947466 12.9871 1.11696L11.5202 9.93042C11.3779 10.7806 10.4361 11.2681 9.64897 10.8446C8.99052 10.4904 8.01255 9.94452 7.1329 9.37498C6.69307 9.08989 5.34578 8.17696 5.51136 7.52733C5.65365 6.97189 7.91747 4.88464 9.21108 3.64369C9.71883 3.15616 9.48727 2.87491 8.88768 3.32337C7.39874 4.43682 5.00814 6.13007 4.21775 6.60672C3.52049 7.02698 3.15698 7.09874 2.72233 7.02698C1.92935 6.89629 1.19393 6.69384 0.593695 6.44719C-0.217399 6.11405 -0.177944 5.00957 0.593048 4.68796L11.6534 0.0752544Z" fill="currentColor"></path>
  </symbol>
  <symbol fill="none" xmlns="http://www.w3.org/2000/svg" viewBox="0 0 17 17" id="ic_wallet">
    <path d="M13.4583 4.95833V2.83333C13.4583 2.64547 13.3837 2.4653 13.2509 2.33247C13.118 2.19963 12.9379 2.125 12.75 2.125H3.54167C3.16594 2.125 2.80561 2.27426 2.53993 2.53993C2.27426 2.80561 2.125 3.16594 2.125 3.54167C2.125 3.91739 2.27426 4.27772 2.53993 4.5434C2.80561 4.80908 3.16594 4.95833 3.54167 4.95833H14.1667C14.3545 4.95833 14.5347 5.03296 14.6675 5.1658C14.8004 5.29864 14.875 5.4788 14.875 5.66667V8.5M14.875 8.5H12.75C12.3743 8.5 12.0139 8.64926 11.7483 8.91493C11.4826 9.18061 11.3333 9.54094 11.3333 9.91667C11.3333 10.2924 11.4826 10.6527 11.7483 10.9184C12.0139 11.1841 12.3743 11.3333 12.75 11.3333H14.875C15.0629 11.3333 15.243 11.2587 15.3759 11.1259C15.5087 10.993 15.5833 10.8129 15.5833 10.625V9.20833C15.5833 9.02047 15.5087 8.8403 15.3759 8.70747C15.243 8.57463 15.0629 8.5 14.875 8.5Z" stroke="currentColor" stroke-linecap="round" stroke-linejoin="round"></path>
    <path d="M2.125 3.54102V13.4577C2.125 13.8334 2.27426 14.1937 2.53993 14.4594C2.80561 14.7251 3.16594 14.8743 3.54167 14.8743H14.1667C14.3545 14.8743 14.5347 14.7997 14.6675 14.6669C14.8004 14.534 14.875 14.3539 14.875 14.166V11.3327" stroke="currentColor" stroke-linecap="round" stroke-linejoin="round"></path>
  </symbol>
</svg>